<?xml version="1.0" standalone="no"?><!DOCTYPE svg PUBLIC "-//W3C//DTD SVG 1.1//EN" "http://www.w3.org/Graphics/SVG/1.1/DTD/svg11.dtd"><svg t="1508406479161" class="icon" style="" viewBox="0 0 1024 1024" version="1.1" xmlns="http://www.w3.org/2000/svg" p-id="2329" xmlns:xlink="http://www.w3.org/1999/xlink" width="200" height="200"><defs><style type="text/css"></style></defs><path d="M1009.458746 302.837624c-9.163734-9.163734-21.345464-14.212018-34.301508-14.212018L681.305012 288.625605c22.060333-11.552219 44.512395-25.372507 66.482797-41.066087 48.04406-34.324371 88.489781-73.72294 113.895822-110.923553 37.606061-55.081478 30.728688-87.316116 18.344234-104.660449 0 0-0.006097-0.006097-0.006097-0.012194-12.402745-17.332139-40.660639-34.283217-104.963772-16.576115-43.416466 11.966812-93.788041 37.450589-141.850392 71.770387-48.037963 34.318275-88.489781 73.710746-113.895822 110.923553-6.406383 9.383224-11.437901 18.047007-15.455799 26.145297-18.755779-27.300671-48.318423-56.08138-83.363761-81.124651-35.260255-25.180453-72.311493-43.905747-104.338834-52.729575-49.65061-13.670913-72.038654 0.161569-82.065108 14.189155-10.032551 14.039779-15.890207 39.707989 13.170962 82.255638 18.719197 27.430232 48.460178 56.413665 83.720433 81.600214 10.270332 7.334645 20.683943 14.051973 31.091457 20.20838L55.182078 288.625605c-14.652524 0-28.430134 5.703708-38.790396 16.070067-10.360263 10.364835-16.06397 24.142445-16.06397 38.784299l0 100.593775c0 15.080835 5.871374 29.251699 16.534961 39.915286 10.663586 10.665111 24.840547 16.534961 39.915286 16.534961l17.428166 0 0 396.255275c0 31.871869 12.413415 61.838436 34.955407 84.380429s52.510085 34.956931 84.381953 34.956931l651.254611 0c31.871869 0 61.838436-12.414939 84.380429-34.956931 22.541993-22.535896 34.956931-52.502463 34.956931-84.380429L964.135455 500.464548c15.760647-0.303324 30.550352-6.543564 41.744374-17.73149 11.472958-11.466861 17.790935-26.72146 17.790935-42.947l0-102.646927C1023.670764 324.183087 1018.620955 312.001358 1009.458746 302.837624L1009.458746 302.837624zM553.639202 221.522442c22.720329-33.283315 59.56427-68.990173 103.726089-100.546524 44.19078-31.544157 89.905801-54.813212 128.732779-65.511856 15.355199-4.23434 27.95457-5.984168 37.65941-5.984168 12.027782 0 19.600208 2.691809 22.452062 6.656358 5.113827 7.162406 1.274265 27.585704-18.856379 57.058418-22.720329 33.277218-59.552076 68.984076-103.719992 100.546524-44.184683 31.556351-89.911898 54.823882-128.763263 65.52405-34.402108 9.485349-54.985451 6.490216-60.100802-0.684384C529.655278 271.423027 533.496364 251.001253 553.639202 221.522442L553.639202 221.522442zM281.585139 163.381813c-15.521341-22.72795-14.515342-33.486039-13.675486-34.653607 0.452699-0.637133 3.976743-2.339709 11.806767-2.339709 5.875947 0 14.170864 0.958747 25.399943 4.05448 27.043075 7.448963 60.291332 24.393945 91.216648 46.477141 30.937509 22.107584 57.753472 48.079118 73.573564 71.258243 15.326238 22.435296 14.486382 33.533291 13.695301 34.641413 0 0.006097-0.006097 0.012194-0.006097 0.012194-0.786508 1.112696-11.009589 5.48879-37.202138-1.720868-27.065938-7.45506-60.32639-24.406139-91.245608-46.513723C324.210524 212.49589 297.394561 186.542647 281.585139 163.381813L281.585139 163.381813zM46.251553 454.600152c-2.810699-2.815272-4.357804-6.549661-4.357804-10.532502l0-100.593775c0-3.548432 1.387059-6.889567 3.89291-9.401515 2.507376-2.507376 5.84089-3.888337 9.395418-3.888337l439.808922 0 0 128.76936L56.777958 458.953383C52.801215 458.953383 49.062253 457.410851 46.251553 454.600152L46.251553 454.600152zM138.551936 951.770816c-14.689106-14.695203-22.787395-34.223772-22.787395-54.997645L115.764541 503.929147l379.22646 0 0 470.621444L193.545008 974.55059C172.76961 974.55059 153.239517 966.461446 138.551936 951.770816L138.551936 951.770816zM922.570941 896.773171c0 20.773874-8.086096 40.30854-22.779774 54.997645-14.695203 14.69063-34.217675 22.779774-54.991548 22.779774L536.557038 974.55059 536.557038 503.929147l386.013903 0L922.570941 896.773171 922.570941 896.773171zM982.104726 439.786059c0 5.121448-1.995231 9.938048-5.609205 13.552022-3.626168 3.626168-8.442768 5.621399-13.558119 5.621399L536.557038 458.95948l0-128.775457 438.594102 0c2.507376 0 4.156604 1.274265 4.918724 2.036385s2.036385 2.411348 2.036385 4.918724L982.10625 439.786059 982.104726 439.786059zM982.104726 439.786059" p-id="2330"></path></svg>